{
    "asset" : {
        "generator" : "Khronos glTF Blender I/O v1.8.19",
        "version" : "2.0"
    },
    "scene" : 0,
    "scenes" : [
        {
            "name" : "Scene",
            "nodes" : [
                0
            ]
        }
    ],
    "nodes" : [
        {
            "mesh" : 0,
            "name" : "Cube.017",
            "scale" : [
                2.656235694885254,
                1.8089690208435059,
                -2.9571242332458496
            ],
            "translation" : [
                2.0610344409942627,
                1.43722403049469,
                0.006192192435264587
            ]
        }
    ],
    "materials" : [
        {
            "doubleSided" : true,
            "name" : "Material.014",
            "pbrMetallicRoughness" : {
                "baseColorFactor" : [
                    0.8387984037399292,
                    0.7529418468475342,
                    0.5840786099433899,
                    1
                ],
                "metallicFactor" : 0,
                "roughnessFactor" : 0.5
            }
        },
        {
            "doubleSided" : true,
            "name" : "Material.001",
            "pbrMetallicRoughness" : {
                "baseColorFactor" : [
                    0.8387984037399292,
                    0.7529418468475342,
                    0.5840786099433899,
                    1
                ],
                "metallicFactor" : 0,
                "roughnessFactor" : 0.5
            }
        },
        {
            "doubleSided" : true,
            "name" : "Material.006",
            "pbrMetallicRoughness" : {
                "baseColorFactor" : [
                    0.8387984037399292,
                    0.7529418468475342,
                    0.5840786099433899,
                    1
                ],
                "metallicFactor" : 0,
                "roughnessFactor" : 0.5
            }
        },
        {
            "doubleSided" : true,
            "name" : "Material.002",
            "pbrMetallicRoughness" : {
                "baseColorFactor" : [
                    0.02955681085586548,
                    0.029556820169091225,
                    0.029556840658187866,
                    1
                ],
                "metallicFactor" : 0,
                "roughnessFactor" : 0.8684210777282715
            }
        },
        {
            "doubleSided" : true,
            "name" : "Material.008",
            "pbrMetallicRoughness" : {
                "baseColorFactor" : [
                    0.02955681085586548,
                    0.029556820169091225,
                    0.029556840658187866,
                    1
                ],
                "metallicFactor" : 0,
                "roughnessFactor" : 0.5
            }
        },
        {
            "doubleSided" : true,
            "name" : "Material.009",
            "pbrMetallicRoughness" : {
                "baseColorFactor" : [
                    0.02955681085586548,
                    0.029556820169091225,
                    0.029556840658187866,
                    1
                ],
                "metallicFactor" : 0,
                "roughnessFactor" : 0.5
            }
        },
        {
            "doubleSided" : true,
            "name" : "Material.007",
            "pbrMetallicRoughness" : {
                "baseColorFactor" : [
                    0.02955681085586548,
                    0.029556820169091225,
                    0.029556840658187866,
                    1
                ],
                "metallicFactor" : 0,
                "roughnessFactor" : 0.5
            }
        },
        {
            "doubleSided" : true,
            "name" : "Material.004",
            "pbrMetallicRoughness" : {
                "baseColorFactor" : [
                    0.02955681085586548,
                    0.029556820169091225,
                    0.029556840658187866,
                    1
                ],
                "metallicFactor" : 0,
                "roughnessFactor" : 0.5
            }
        },
        {
            "doubleSided" : true,
            "name" : "Material.011",
            "pbrMetallicRoughness" : {
                "baseColorFactor" : [
                    0.02955681085586548,
                    0.029556820169091225,
                    0.029556840658187866,
                    1
                ],
                "metallicFactor" : 0,
                "roughnessFactor" : 0.5
            }
        },
        {
            "doubleSided" : true,
            "name" : "Material.015",
            "pbrMetallicRoughness" : {
                "baseColorFactor" : [
                    0.06480313837528229,
                    0.10461641103029251,
                    0.12477178871631622,
                    1
                ],
                "metallicFactor" : 0,
                "roughnessFactor" : 0.5
            }
        }
    ],
    "meshes" : [
        {
            "name" : "Cube.002",
            "primitives" : [
                {
                    "attributes" : {
                        "POSITION" : 0,
                        "NORMAL" : 1,
                        "TEXCOORD_0" : 2,
                        "COLOR_0" : 3
                    },
                    "indices" : 4,
                    "material" : 0
                },
                {
                    "attributes" : {
                        "POSITION" : 5,
                        "NORMAL" : 6,
                        "TEXCOORD_0" : 7,
                        "COLOR_0" : 8
                    },
                    "indices" : 9,
                    "material" : 1
                },
                {
                    "attributes" : {
                        "POSITION" : 10,
                        "NORMAL" : 11,
                        "TEXCOORD_0" : 12,
                        "COLOR_0" : 13
                    },
                    "indices" : 14,
                    "material" : 2
                },
                {
                    "attributes" : {
                        "POSITION" : 15,
                        "NORMAL" : 16,
                        "TEXCOORD_0" : 17,
                        "COLOR_0" : 18
                    },
                    "indices" : 19,
                    "material" : 3
                },
                {
                    "attributes" : {
                        "POSITION" : 20,
                        "NORMAL" : 21,
                        "TEXCOORD_0" : 22,
                        "COLOR_0" : 23
                    },
                    "indices" : 14,
                    "material" : 4
                },
                {
                    "attributes" : {
                        "POSITION" : 24,
                        "NORMAL" : 25,
                        "TEXCOORD_0" : 26,
                        "COLOR_0" : 27
                    },
                    "indices" : 28,
                    "material" : 5
                },
                {
                    "attributes" : {
                        "POSITION" : 29,
                        "NORMAL" : 30,
                        "TEXCOORD_0" : 31,
                        "COLOR_0" : 32
                    },
                    "indices" : 33,
                    "material" : 6
                },
                {
                    "attributes" : {
                        "POSITION" : 34,
                        "NORMAL" : 35,
                        "TEXCOORD_0" : 36,
                        "COLOR_0" : 37
                    },
                    "indices" : 38,
                    "material" : 7
                },
                {
                    "attributes" : {
                        "POSITION" : 39,
                        "NORMAL" : 40,
                        "TEXCOORD_0" : 41,
                        "COLOR_0" : 42
                    },
                    "indices" : 43,
                    "material" : 8
                },
                {
                    "attributes" : {
                        "POSITION" : 44,
                        "NORMAL" : 45,
                        "TEXCOORD_0" : 46,
                        "COLOR_0" : 47
                    },
                    "indices" : 48,
                    "material" : 9
                }
            ]
        }
    ],
    "accessors" : [
        {
            "bufferView" : 0,
            "componentType" : 5126,
            "count" : 676,
            "max" : [
                1,
                1.2201944589614868,
                1
            ],
            "min" : [
                -1,
                -1,
                -1
            ],
            "type" : "VEC3"
        },
        {
            "bufferView" : 1,
            "componentType" : 5126,
            "count" : 676,
            "type" : "VEC3"
        },
        {
            "bufferView" : 2,
            "componentType" : 5126,
            "count" : 676,
            "type" : "VEC2"
        },
        {
            "bufferView" : 3,
            "componentType" : 5123,
            "count" : 676,
            "normalized" : true,
            "type" : "VEC4"
        },
        {
            "bufferView" : 4,
            "componentType" : 5123,
            "count" : 1272,
            "type" : "SCALAR"
        },
        {
            "bufferView" : 5,
            "componentType" : 5126,
            "count" : 790,
            "max" : [
                1.1649882793426514,
                -1.2835034132003784,
                1.1148051023483276
            ],
            "min" : [
                -2.5224180221557617,
                -3.100006580352783,
                -1.101083755493164
            ],
            "type" : "VEC3"
        },
        {
            "bufferView" : 6,
            "componentType" : 5126,
            "count" : 790,
            "type" : "VEC3"
        },
        {
            "bufferView" : 7,
            "componentType" : 5126,
            "count" : 790,
            "type" : "VEC2"
        },
        {
            "bufferView" : 8,
            "componentType" : 5123,
            "count" : 790,
            "normalized" : true,
            "type" : "VEC4"
        },
        {
            "bufferView" : 9,
            "componentType" : 5123,
            "count" : 1482,
            "type" : "SCALAR"
        },
        {
            "bufferView" : 10,
            "componentType" : 5126,
            "count" : 24,
            "max" : [
                0.8648717403411865,
                -0.9908351898193359,
                0.727266788482666
            ],
            "min" : [
                -0.9222142696380615,
                -1.5761711597442627,
                -0.7103656530380249
            ],
            "type" : "VEC3"
        },
        {
            "bufferView" : 11,
            "componentType" : 5126,
            "count" : 24,
            "type" : "VEC3"
        },
        {
            "bufferView" : 12,
            "componentType" : 5126,
            "count" : 24,
            "type" : "VEC2"
        },
        {
            "bufferView" : 13,
            "componentType" : 5123,
            "count" : 24,
            "normalized" : true,
            "type" : "VEC4"
        },
        {
            "bufferView" : 14,
            "componentType" : 5123,
            "count" : 36,
            "type" : "SCALAR"
        },
        {
            "bufferView" : 15,
            "componentType" : 5126,
            "count" : 376,
            "max" : [
                -1.1716493368148804,
                -1.5096981525421143,
                0.976311981678009
            ],
            "min" : [
                -1.2151700258255005,
                -1.9620881080627441,
                -0.9625906348228455
            ],
            "type" : "VEC3"
        },
        {
            "bufferView" : 16,
            "componentType" : 5126,
            "count" : 376,
            "type" : "VEC3"
        },
        {
            "bufferView" : 17,
            "componentType" : 5126,
            "count" : 376,
            "type" : "VEC2"
        },
        {
            "bufferView" : 18,
            "componentType" : 5123,
            "count" : 376,
            "normalized" : true,
            "type" : "VEC4"
        },
        {
            "bufferView" : 19,
            "componentType" : 5123,
            "count" : 672,
            "type" : "SCALAR"
        },
        {
            "bufferView" : 20,
            "componentType" : 5126,
            "count" : 24,
            "max" : [
                -1.6207609176635742,
                -2.3612937927246094,
                0.9809704422950745
            ],
            "min" : [
                -2.139174461364746,
                -2.667215347290039,
                -0.10762612521648407
            ],
            "type" : "VEC3"
        },
        {
            "bufferView" : 21,
            "componentType" : 5126,
            "count" : 24,
            "type" : "VEC3"
        },
        {
            "bufferView" : 22,
            "componentType" : 5126,
            "count" : 24,
            "type" : "VEC2"
        },
        {
            "bufferView" : 23,
            "componentType" : 5123,
            "count" : 24,
            "normalized" : true,
            "type" : "VEC4"
        },
        {
            "bufferView" : 24,
            "componentType" : 5126,
            "count" : 24,
            "max" : [
                -2.22697377204895,
                -2.5105440616607666,
                0.7291556000709534
            ],
            "min" : [
                -2.4170315265655518,
                -2.73405385017395,
                0.1416911780834198
            ],
            "type" : "VEC3"
        },
        {
            "bufferView" : 25,
            "componentType" : 5126,
            "count" : 24,
            "type" : "VEC3"
        },
        {
            "bufferView" : 26,
            "componentType" : 5126,
            "count" : 24,
            "type" : "VEC2"
        },
        {
            "bufferView" : 27,
            "componentType" : 5123,
            "count" : 24,
            "normalized" : true,
            "type" : "VEC4"
        },
        {
            "bufferView" : 28,
            "componentType" : 5123,
            "count" : 36,
            "type" : "SCALAR"
        },
        {
            "bufferView" : 29,
            "componentType" : 5126,
            "count" : 24,
            "max" : [
                -1.6207609176635742,
                -2.3612937927246094,
                -0.3933192789554596
            ],
            "min" : [
                -2.139174461364746,
                -2.667215347290039,
                -0.9561383128166199
            ],
            "type" : "VEC3"
        },
        {
            "bufferView" : 30,
            "componentType" : 5126,
            "count" : 24,
            "type" : "VEC3"
        },
        {
            "bufferView" : 31,
            "componentType" : 5126,
            "count" : 24,
            "type" : "VEC2"
        },
        {
            "bufferView" : 32,
            "componentType" : 5123,
            "count" : 24,
            "normalized" : true,
            "type" : "VEC4"
        },
        {
            "bufferView" : 33,
            "componentType" : 5123,
            "count" : 36,
            "type" : "SCALAR"
        },
        {
            "bufferView" : 34,
            "componentType" : 5126,
            "count" : 244,
            "max" : [
                1.0578794479370117,
                -3.0302395820617676,
                1.0562739372253418
            ],
            "min" : [
                -2.391727924346924,
                -3.474741220474243,
                -1.0197697877883911
            ],
            "type" : "VEC3"
        },
        {
            "bufferView" : 35,
            "componentType" : 5126,
            "count" : 244,
            "type" : "VEC3"
        },
        {
            "bufferView" : 36,
            "componentType" : 5126,
            "count" : 244,
            "type" : "VEC2"
        },
        {
            "bufferView" : 37,
            "componentType" : 5123,
            "count" : 244,
            "normalized" : true,
            "type" : "VEC4"
        },
        {
            "bufferView" : 38,
            "componentType" : 5123,
            "count" : 516,
            "type" : "SCALAR"
        },
        {
            "bufferView" : 39,
            "componentType" : 5126,
            "count" : 458,
            "max" : [
                -0.8213071823120117,
                1.1177393198013306,
                0.8955356478691101
            ],
            "min" : [
                -0.8969087600708008,
                -0.799701452255249,
                -0.8955356478691101
            ],
            "type" : "VEC3"
        },
        {
            "bufferView" : 40,
            "componentType" : 5126,
            "count" : 458,
            "type" : "VEC3"
        },
        {
            "bufferView" : 41,
            "componentType" : 5126,
            "count" : 458,
            "type" : "VEC2"
        },
        {
            "bufferView" : 42,
            "componentType" : 5123,
            "count" : 458,
            "normalized" : true,
            "type" : "VEC4"
        },
        {
            "bufferView" : 43,
            "componentType" : 5123,
            "count" : 708,
            "type" : "SCALAR"
        },
        {
            "bufferView" : 44,
            "componentType" : 5126,
            "count" : 288,
            "max" : [
                -0.5887631177902222,
                0.9991954565048218,
                0.7637592554092407
            ],
            "min" : [
                -0.8570297956466675,
                -0.8122564554214478,
                -0.7849401235580444
            ],
            "type" : "VEC3"
        },
        {
            "bufferView" : 45,
            "componentType" : 5126,
            "count" : 288,
            "type" : "VEC3"
        },
        {
            "bufferView" : 46,
            "componentType" : 5126,
            "count" : 288,
            "type" : "VEC2"
        },
        {
            "bufferView" : 47,
            "componentType" : 5123,
            "count" : 288,
            "normalized" : true,
            "type" : "VEC4"
        },
        {
            "bufferView" : 48,
            "componentType" : 5123,
            "count" : 432,
            "type" : "SCALAR"
        }
    ],
    "bufferViews" : [
        {
            "buffer" : 0,
            "byteLength" : 8112,
            "byteOffset" : 0
        },
        {
            "buffer" : 0,
            "byteLength" : 8112,
            "byteOffset" : 8112
        },
        {
            "buffer" : 0,
            "byteLength" : 5408,
            "byteOffset" : 16224
        },
        {
            "buffer" : 0,
            "byteLength" : 5408,
            "byteOffset" : 21632
        },
        {
            "buffer" : 0,
            "byteLength" : 2544,
            "byteOffset" : 27040
        },
        {
            "buffer" : 0,
            "byteLength" : 9480,
            "byteOffset" : 29584
        },
        {
            "buffer" : 0,
            "byteLength" : 9480,
            "byteOffset" : 39064
        },
        {
            "buffer" : 0,
            "byteLength" : 6320,
            "byteOffset" : 48544
        },
        {
            "buffer" : 0,
            "byteLength" : 6320,
            "byteOffset" : 54864
        },
        {
            "buffer" : 0,
            "byteLength" : 2964,
            "byteOffset" : 61184
        },
        {
            "buffer" : 0,
            "byteLength" : 288,
            "byteOffset" : 64148
        },
        {
            "buffer" : 0,
            "byteLength" : 288,
            "byteOffset" : 64436
        },
        {
            "buffer" : 0,
            "byteLength" : 192,
            "byteOffset" : 64724
        },
        {
            "buffer" : 0,
            "byteLength" : 192,
            "byteOffset" : 64916
        },
        {
            "buffer" : 0,
            "byteLength" : 72,
            "byteOffset" : 65108
        },
        {
            "buffer" : 0,
            "byteLength" : 4512,
            "byteOffset" : 65180
        },
        {
            "buffer" : 0,
            "byteLength" : 4512,
            "byteOffset" : 69692
        },
        {
            "buffer" : 0,
            "byteLength" : 3008,
            "byteOffset" : 74204
        },
        {
            "buffer" : 0,
            "byteLength" : 3008,
            "byteOffset" : 77212
        },
        {
            "buffer" : 0,
            "byteLength" : 1344,
            "byteOffset" : 80220
        },
        {
            "buffer" : 0,
            "byteLength" : 288,
            "byteOffset" : 81564
        },
        {
            "buffer" : 0,
            "byteLength" : 288,
            "byteOffset" : 81852
        },
        {
            "buffer" : 0,
            "byteLength" : 192,
            "byteOffset" : 82140
        },
        {
            "buffer" : 0,
            "byteLength" : 192,
            "byteOffset" : 82332
        },
        {
            "buffer" : 0,
            "byteLength" : 288,
            "byteOffset" : 82524
        },
        {
            "buffer" : 0,
            "byteLength" : 288,
            "byteOffset" : 82812
        },
        {
            "buffer" : 0,
            "byteLength" : 192,
            "byteOffset" : 83100
        },
        {
            "buffer" : 0,
            "byteLength" : 192,
            "byteOffset" : 83292
        },
        {
            "buffer" : 0,
            "byteLength" : 72,
            "byteOffset" : 83484
        },
        {
            "buffer" : 0,
            "byteLength" : 288,
            "byteOffset" : 83556
        },
        {
            "buffer" : 0,
            "byteLength" : 288,
            "byteOffset" : 83844
        },
        {
            "buffer" : 0,
            "byteLength" : 192,
            "byteOffset" : 84132
        },
        {
            "buffer" : 0,
            "byteLength" : 192,
            "byteOffset" : 84324
        },
        {
            "buffer" : 0,
            "byteLength" : 72,
            "byteOffset" : 84516
        },
        {
            "buffer" : 0,
            "byteLength" : 2928,
            "byteOffset" : 84588
        },
        {
            "buffer" : 0,
            "byteLength" : 2928,
            "byteOffset" : 87516
        },
        {
            "buffer" : 0,
            "byteLength" : 1952,
            "byteOffset" : 90444
        },
        {
            "buffer" : 0,
            "byteLength" : 1952,
            "byteOffset" : 92396
        },
        {
            "buffer" : 0,
            "byteLength" : 1032,
            "byteOffset" : 94348
        },
        {
            "buffer" : 0,
            "byteLength" : 5496,
            "byteOffset" : 95380
        },
        {
            "buffer" : 0,
            "byteLength" : 5496,
            "byteOffset" : 100876
        },
        {
            "buffer" : 0,
            "byteLength" : 3664,
            "byteOffset" : 106372
        },
        {
            "buffer" : 0,
            "byteLength" : 3664,
            "byteOffset" : 110036
        },
        {
            "buffer" : 0,
            "byteLength" : 1416,
            "byteOffset" : 113700
        },
        {
            "buffer" : 0,
            "byteLength" : 3456,
            "byteOffset" : 115116
        },
        {
            "buffer" : 0,
            "byteLength" : 3456,
            "byteOffset" : 118572
        },
        {
            "buffer" : 0,
            "byteLength" : 2304,
            "byteOffset" : 122028
        },
        {
            "buffer" : 0,
            "byteLength" : 2304,
            "byteOffset" : 124332
        },
        {
            "buffer" : 0,
            "byteLength" : 864,
            "byteOffset" : 126636
        }
    ],
    "buffers" : [
        {
            "byteLength" : 127500,
            "uri" : "data:application/octet-stream;base64,"
        }
    ]
}
